<svg width="3319" height="1406" viewBox="0 0 3319 1406" fill="none" xmlns="http://www.w3.org/2000/svg">
<path d="M1161.38 1104V429H1824.07V499.312H1245.75V724.312H1799.9V794.625H1245.75V1033.69H1836.38V1104H1161.38ZM1950.63 1104V429H2076.32L2484.57 979.635L2886.67 429H3012.35V1104H2927.98V505.465L2525 1059.62H2448.53L2035.01 505.465V1104H1950.63Z" fill="white"/>
<circle cx="675.5" cy="717.5" r="338.5" fill="#BB8D03" stroke="#3A7309" stroke-width="20"/>
<path d="M630.437 329.762L630.625 330.025C643.575 328.675 656.7 328 670 328C873.962 328 1039.9 490.825 1044.89 693.625C1001.16 684.55 938.087 678.888 848.837 690.738C826.115 693.737 803.94 699.975 782.987 709.262L782.2 705.25C780.985 698.391 779.293 691.624 777.137 685L776.425 683.612L774.025 679.675C771.317 675.621 768.478 671.657 765.512 667.788L761.387 662.425C755.387 654.475 748.15 645.062 742.037 635.725C734.687 624.55 726.4 609.925 723.775 594.325C722.1 585.124 722.81 575.648 725.837 566.8C729.325 556.9 735.737 548.725 744.062 542.462C762.212 528.887 788.837 498.513 812.462 469C823.225 455.538 832.862 442.938 840.062 433.375C787.465 400.082 726.236 382.997 664 384.25C668.575 393.438 673.525 404.237 677.987 416.125C691 450.737 702.962 501.7 681.737 546.887C662.162 588.625 628.337 599.387 603.362 605.875L600.175 606.662C575.575 613.038 566.125 615.475 559.225 625.938C552.85 635.575 553.825 647.762 561.512 672.812L563.237 678.363C566.275 688.038 569.987 699.738 571.862 710.725C574.262 724.375 574.9 741.737 566.162 758.538C558.755 773.492 546.988 785.848 532.412 793.975C519.625 800.912 506.387 803.575 496.487 805.3L493 805.938C473.687 809.312 464.462 810.962 455.5 820.562C448.487 828.062 443.987 841.3 441.325 861.025C440.275 869.05 439.637 877.038 438.962 885.25L438.587 889.637C437.837 898.712 436.937 909.175 434.875 918.137V918.213C489.59 978.086 565.116 1014.79 646 1020.81C639.437 1039.67 635.125 1058.31 633.325 1076.2C582.634 1071.22 533.488 1055.97 488.886 1031.37C444.283 1006.78 405.159 973.352 373.9 933.137H373.787V933.025C322.604 867.284 294.872 786.316 295 703C295 509.425 441.662 350.125 629.95 330.1L630.437 329.762ZM670.187 1085.72C672.437 1049.5 688.75 1005.4 716.425 963.775C726.041 947.552 737.165 932.272 749.65 918.137C794.145 867.515 852.923 831.55 918.25 814.975C923.042 813.738 927.151 810.656 929.681 806.402C932.21 802.147 932.955 797.065 931.752 792.264C930.549 787.462 927.497 783.332 923.26 780.772C919.024 778.212 913.947 777.432 909.137 778.6C836.428 797.027 771.005 837.047 721.487 893.388C711.629 904.56 702.522 916.374 694.225 928.75C690.55 916.332 688.681 903.45 688.675 890.5C688.675 856.15 706.187 818.763 733.937 789.175C765.592 755.515 807.93 733.862 853.75 727.9C958.75 714.025 1023.92 725.65 1062.36 736.413C1067.54 737.873 1072.2 740.79 1075.77 744.817C1079.35 748.844 1081.69 753.812 1082.52 759.131C1083.35 764.45 1082.64 769.896 1080.47 774.823C1078.3 779.75 1074.76 783.95 1070.27 786.925C1068.14 788.35 1064.69 791.8 1060.52 799.675C1055.62 809.613 1051.6 819.966 1048.52 830.612C1045.26 841.3 1042.15 852.812 1038.77 865.338L1036.6 873.288C1032.44 888.663 1027.82 905.162 1022.27 921.513C1011.32 953.837 995.875 988.3 969.887 1014.81C942.925 1042.3 906.325 1059.44 857.425 1059.44C807.587 1059.44 772.787 1039.23 750.55 1015.98C735.4 1043.73 727.525 1069.86 726.325 1089.14C726.165 1092.87 725.262 1096.53 723.671 1099.91C722.08 1103.29 719.831 1106.32 717.056 1108.82C714.282 1111.32 711.036 1113.25 707.51 1114.48C703.984 1115.71 700.248 1116.23 696.519 1116C692.791 1115.78 689.145 1114.81 685.794 1113.16C682.443 1111.51 679.455 1109.2 677.004 1106.39C674.552 1103.57 672.687 1100.29 671.517 1096.74C670.346 1093.19 669.895 1089.45 670.187 1085.72Z" fill="#3A7309"/>
</svg>
